<?xml version="1.0" encoding="UTF-8" standalone="no"?>
<svg width="60px" height="60px" viewBox="0 0 60 60" version="1.1" xmlns="http://www.w3.org/2000/svg" xmlns:xlink="http://www.w3.org/1999/xlink" xmlns:sketch="http://www.bohemiancoding.com/sketch/ns">
    <!-- Generator: Sketch 3.2.2 (9983) - http://www.bohemiancoding.com/sketch -->
    <title>Pizzaslice</title>
    <desc>Created with Sketch.</desc>
    <defs></defs>
    <g id="stroked" stroke="none" stroke-width="1" fill="none" fill-rule="evenodd" sketch:type="MSPage">
        <g id="Kitchen_sliced" sketch:type="MSLayerGroup" transform="translate(-240.000000, -720.000000)"></g>
        <g id="Kitchen" sketch:type="MSLayerGroup" transform="translate(-247.000000, -718.000000)" stroke="#535353" stroke-width="2" stroke-linecap="round" stroke-linejoin="round">
            <g id="Pizza" transform="translate(252.000000, 721.000000)" sketch:type="MSShapeGroup">
                <path d="M12,46.2647518 L0.0545635174,51.454838 L22.3284271,0.189596336 C22.3284271,0.189596336 28.3363424,1.95487089 38.9454365,12.563965 C49.5545306,23.1730591 51.3198052,29.1809744 51.3198052,29.1809744 L28,39.3130276 L28,39.3130276 L28,51.4977394 C28,52.8796998 26.8903379,54 25.5,54 C24.1192881,54 23,52.8787711 23,51.4977394 L23,41.4854414 L17,44.092338 L17,48.4977394 C17,49.8796998 15.8903379,51 14.5,51 C13.1192881,51 12,49.8787711 12,48.4977394 L12,46.2647518 Z" id="Triangle-24"></path>
                <circle id="Oval-685" cx="21" cy="25" r="4"></circle>
                <circle id="Oval-685" cx="14" cy="37" r="3"></circle>
                <circle id="Oval-685" cx="33.5" cy="27.5" r="4.5"></circle>
                <path d="M19.1956293,7.64537557 C19.1956293,7.64537557 22.9473271,6.67508648 26.2246311,10.2854752 C29.5019352,13.8958639 29.1109234,16.5899413 31.9173459,17.2021324 C34.7237684,17.8143234 37.2221207,18.1469681 39.3878272,21.8117744 C41.5535337,25.4765806 43.056144,30.2279696 45.2797782,31.4229481" id="Path-1553"></path>
            </g>
        </g>
    </g>
</svg>